<?xml version="1.0" encoding="UTF-8" standalone="no"?>
<svg
   height="16px"
   viewBox="0 0 16 16"
   width="16px"
   version="1.1"
   id="svg876"
   sodipodi:docname="xsi-applications-education-symbolic.svg"
   inkscape:version="1.2.2 (b0a8486541, 2022-12-01)"
   xmlns:inkscape="http://www.inkscape.org/namespaces/inkscape"
   xmlns:sodipodi="http://sodipodi.sourceforge.net/DTD/sodipodi-0.dtd"
   xmlns="http://www.w3.org/2000/svg"
   xmlns:svg="http://www.w3.org/2000/svg">
  <defs
     id="defs880" />
  <sodipodi:namedview
     id="namedview878"
     pagecolor="#ffffff"
     bordercolor="#666666"
     borderopacity="1.0"
     inkscape:showpageshadow="2"
     inkscape:pageopacity="0.0"
     inkscape:pagecheckerboard="0"
     inkscape:deskcolor="#d1d1d1"
     showgrid="false"
     inkscape:zoom="64.1875"
     inkscape:cx="5.6553067"
     inkscape:cy="7.9922103"
     inkscape:window-width="2560"
     inkscape:window-height="1348"
     inkscape:window-x="2560"
     inkscape:window-y="0"
     inkscape:window-maximized="1"
     inkscape:current-layer="svg876" />
  <path
     d="m 15.10585,3.1258547 -6.9230696,-2.30769 a 0.57740768,0.57740768 0 0 0 -0.36488,0 l -6.91198998,2.304 -7.1e-4,2.4e-4 -0.0104,0.003 c -0.002,6.7e-4 -0.004,0.002 -0.006,0.002 a 0.57072619,0.57072619 0 0 0 -0.0729,0.0309 c -0.003,10e-4 -0.006,0.003 -0.008,0.004 a 0.57499974,0.57499974 0 0 0 -0.0672,0.0421 c -0.005,0.003 -0.009,0.007 -0.0139,0.0104 a 0.58302331,0.58302331 0 0 0 -0.059,0.0513 c -0.002,0.002 -0.003,0.004 -0.005,0.005 a 0.57852402,0.57852402 0 0 0 -0.0477,0.0565 c -0.003,0.004 -0.006,0.008 -0.009,0.012 a 0.5770507,0.5770507 0 0 0 -0.0409,0.0671 c -0.002,0.004 -0.003,0.007 -0.005,0.0109 a 0.57477691,0.57477691 0 0 0 -0.0292,0.0704 c -7.6e-4,0.002 -0.002,0.004 -0.002,0.007 a 0.57335911,0.57335911 0 0 0 -0.019,0.0783 c -9.6e-4,0.006 -0.002,0.011 -0.003,0.0166 a 0.57900575,0.57900575 0 0 0 -0.007,0.0825 v 5.76923 a 0.576925,0.576925 0 0 0 1.15384998,0 v -4.96876 l 2.42201,0.80733 a 4.6133436,4.6133436 0 0 0 1.47327,6.3387603 6.9144856,6.9144856 0 0 0 -3.3522,2.69982 0.57690449,0.57690449 0 1 0 0.96652,0.63017 5.7708891,5.7708891 0 0 1 9.6730696,0 0.57690081,0.57690081 0 1 0 0.96651,-0.63017 6.9143804,6.9143804 0 0 0 -3.35216,-2.6998 4.6133653,4.6133653 0 0 0 1.47327,-6.3387803 l 3.18137,-1.06046 a 0.57695913,0.57695913 0 0 0 0,-1.09469 z M 8.0003404,11.173205 a 3.4609282,3.4609282 0 0 1 -2.78735,-5.5132703 l 2.60491,0.8683 a 0.57740768,0.57740768 0 0 0 0.36488,0 l 2.6049096,-0.8683 A 3.4609282,3.4609282 0 0 1 8.0003404,11.173205 Z"
     id="path832"
     style="fill:#2e3436;fill-opacity:1" />
</svg>
