<?xml version="1.0" encoding="UTF-8" standalone="no"?>
<svg
   height="16px"
   viewBox="0 0 16 16"
   width="16px"
   version="1.1"
   id="svg4"
   sodipodi:docname="xsi-frequeency-symbolic.svg"
   inkscape:version="1.2.2 (b0a8486541, 2022-12-01)"
   xmlns:inkscape="http://www.inkscape.org/namespaces/inkscape"
   xmlns:sodipodi="http://sodipodi.sourceforge.net/DTD/sodipodi-0.dtd"
   xmlns="http://www.w3.org/2000/svg"
   xmlns:svg="http://www.w3.org/2000/svg">
  <defs
     id="defs8" />
  <sodipodi:namedview
     id="namedview6"
     pagecolor="#ffffff"
     bordercolor="#666666"
     borderopacity="1.0"
     inkscape:showpageshadow="2"
     inkscape:pageopacity="0.0"
     inkscape:pagecheckerboard="0"
     inkscape:deskcolor="#d1d1d1"
     showgrid="false"
     inkscape:zoom="45.387417"
     inkscape:cx="10.179033"
     inkscape:cy="6.3894362"
     inkscape:window-width="2560"
     inkscape:window-height="1348"
     inkscape:window-x="0"
     inkscape:window-y="0"
     inkscape:window-maximized="1"
     inkscape:current-layer="svg4" />
  <g
     id="SVGRepo_bgCarrier"
     stroke-width="0"
     transform="matrix(0.75046059,0,0,0.75046059,1.1841501,-3.4088422)"
     style="fill:#2e3436;fill-opacity:1" />
  <g
     id="SVGRepo_tracerCarrier"
     stroke-linecap="round"
     stroke-linejoin="round"
     transform="matrix(0.75046059,0,0,0.75046059,1.1841501,-3.4088422)"
     style="fill:#2e3436;fill-opacity:1" />
  <g
     id="SVGRepo_iconCarrier"
     transform="matrix(0.75046059,0,0,0.75046059,-1.0647759,-1.0009212)"
     style="fill:#2e3436;fill-opacity:1">
    <path
       d="M 3,4.5 6,7 V 5.25 H 18 V 7 L 21,4.5 18,2 V 3.75 H 6 V 2 Z"
       id="path33149"
       style="fill:#2e3436;fill-opacity:1" />
    <path
       d="M 6.63935,11.9367 C 7.14967,10.7061 8.89138,10.7018 9.4077,11.9299 l 3.3273,7.9143 c 1.2093,2.8763 5.2933,2.8523 6.4686,-0.0381 L 21.1579,15 h -2.159 l -1.6479,4.0527 c -0.5038,1.2388 -2.2541,1.2491 -2.7723,0.0164 L 11.2514,11.1548 C 10.0466,8.28919 5.98264,8.29911 4.79189,11.1706 L 3.20392,15 h 2.16514 z"
       id="path33146"
       style="fill:#2e3436;fill-opacity:1" />
  </g>
</svg>
