<?xml version="1.0" encoding="UTF-8" standalone="no"?>
<svg
   height="16px"
   viewBox="0 0 16 16"
   width="16px"
   version="1.1"
   id="svg243"
   sodipodi:docname="xsi-fan-symbolic.svg"
   inkscape:version="1.2.2 (b0a8486541, 2022-12-01)"
   xmlns:inkscape="http://www.inkscape.org/namespaces/inkscape"
   xmlns:sodipodi="http://sodipodi.sourceforge.net/DTD/sodipodi-0.dtd"
   xmlns="http://www.w3.org/2000/svg"
   xmlns:svg="http://www.w3.org/2000/svg">
  <defs
     id="defs247" />
  <sodipodi:namedview
     id="namedview245"
     pagecolor="#ffffff"
     bordercolor="#666666"
     borderopacity="1.0"
     inkscape:showpageshadow="2"
     inkscape:pageopacity="0.0"
     inkscape:pagecheckerboard="0"
     inkscape:deskcolor="#d1d1d1"
     showgrid="false"
     inkscape:zoom="11.346854"
     inkscape:cx="28.377909"
     inkscape:cy="1.8507332"
     inkscape:window-width="2560"
     inkscape:window-height="1348"
     inkscape:window-x="0"
     inkscape:window-y="0"
     inkscape:window-maximized="1"
     inkscape:current-layer="g24484" />
  <g
     id="g14946"
     transform="matrix(0.88239176,0,0,0.88239176,0.09488143,1.7452358)">
    <g
       id="path10921"
       style="fill:#bebebe;fill-opacity:0.443137"
       transform="matrix(0.93329778,0,0,0.93329778,17.11894,3.3377885)">
      <g
         id="g16435"
         transform="matrix(0.86810441,0,0,0.86810441,-2.2743224,-0.44318987)">
        <g
           id="g24484">
          <g
             id="g30896"
             style="fill:#2e3436;fill-opacity:1"
             transform="matrix(0.93750001,0,0,0.93750001,-31.34875,0.29521489)">
            <path
               d="m 27.8688,3.7940985 6.348458,-3.66526748 c 0.532232,-0.3072678 1.212734,-0.1249241 1.520044,0.40728 l 0.135261,0.23428 c 0.87493,1.51552548 0.907522,3.37493858 0.08602,4.92016038 -1.00068,1.882465 -3.28697,2.670392 -5.235037,1.804133 L 27.999865,6.2836294 C 26.955263,5.8190984 26.878751,4.3657758 27.8688,3.7940985 Z"
               fill="#33363f"
               id="path30873"
               style="fill:#2e3436;fill-opacity:1;stroke-width:1.39877" />
            <path
               d="M 27.86894,6.5408634 34.217398,10.2062 c 0.532232,0.30731 0.714632,0.987812 0.407322,1.520044 l -0.135261,0.234154 c -0.875071,1.515568 -2.468969,2.473445 -4.217852,2.534711 -2.130746,0.07456 -3.956281,-1.511371 -4.180084,-3.631487 L 25.778478,7.8992094 c -0.120015,-1.136921 1.100412,-1.929883 2.090462,-1.358346 z"
               fill="#33363f"
               id="path30876"
               style="fill:#2e3436;fill-opacity:1;stroke-width:1.39877" />
            <path
               d="M 25.489912,7.9144554 V 15.24499 c 0,0.61448 -0.498242,1.112722 -1.112722,1.112722 h -0.270522 c -1.750002,0 -3.376519,-0.901508 -4.304002,-2.385463 -1.129941,-1.80791 -0.669214,-4.1817626 1.054994,-5.4357606 l 2.410725,-1.753358 c 0.924587,-0.672389 2.221527,-0.01189 2.221527,1.131325 z"
               fill="#33363f"
               id="path30879"
               style="fill:#2e3436;fill-opacity:1;stroke-width:1.39877" />
            <path
               d="M 23.111023,6.5410034 16.762551,10.20634 c -0.532204,0.30717 -1.212734,0.12491 -1.520002,-0.4073216 L 15.107288,9.5647244 C 14.232301,8.0491574 14.199752,6.1897724 15.021178,4.6445504 16.0219,2.7620858 18.308134,1.9741446 20.256187,2.840417 l 2.723769,1.2110552 c 1.044602,0.4645312 1.121115,1.9178542 0.131065,2.4895312 z"
               fill="#33363f"
               id="path30882"
               style="fill:#2e3436;fill-opacity:1;stroke-width:1.39877" />
            <path
               d="M 23.110743,3.7939586 16.762201,0.12866322 c -0.532204,-0.3072678 -0.714548,-0.9877975 -0.40728,-1.52000162 l 0.135261,-0.23428 c 0.874987,-1.5155255 2.468984,-2.4733893 4.217894,-2.5346275 2.130607,-0.07461 3.956142,1.5113572 4.180085,3.63154312 l 0.312905,2.96445548 c 0.120014,1.1367806 -1.100413,1.9297434 -2.090323,1.3582059 z"
               fill="#33363f"
               id="path30885"
               style="fill:#2e3436;fill-opacity:1;stroke-width:1.39877" />
            <path
               d="m 25.489912,2.420646 v -7.3305488 c 0,-0.6145217 0.498102,-1.1127076 1.112721,-1.1127076 h 0.270522 c 1.750002,0 3.376492,0.9015073 4.304016,2.3854766 1.129927,1.8079104 0.669172,4.18181922 -1.055092,5.4357887 l -2.410641,1.7533164 c -0.924587,0.6723889 -2.221526,0.01189 -2.221526,-1.1313253 z"
               fill="#33363f"
               id="path30888"
               style="fill:#2e3436;fill-opacity:1;stroke-width:1.39877" />
          </g>
        </g>
      </g>
    </g>
  </g>
</svg>
